<mxfile host="app.diagrams.net" agent="Mozilla/5.0 (Windows NT 10.0; Win64; x64) AppleWebKit/537.36 (KHTML, like Gecko) Chrome/127.0.0.0 Safari/537.36" version="24.7.6">
  <diagram id="C5RBs43oDa-KdzZeNtuy" name="Page-1">
    <mxGraphModel dx="1290" dy="565" grid="1" gridSize="10" guides="1" tooltips="1" connect="1" arrows="1" fold="1" page="1" pageScale="1" pageWidth="827" pageHeight="1169" math="0" shadow="0">
      <root>
        <mxCell id="WIyWlLk6GJQsqaUBKTNV-0" />
        <mxCell id="WIyWlLk6GJQsqaUBKTNV-1" parent="WIyWlLk6GJQsqaUBKTNV-0" />
        <mxCell id="xCOKYhWK845p-MnD5jjw-0" value="Admin" style="rounded=0;whiteSpace=wrap;html=1;" vertex="1" parent="WIyWlLk6GJQsqaUBKTNV-1">
          <mxGeometry x="120" y="80" width="120" height="60" as="geometry" />
        </mxCell>
        <mxCell id="xCOKYhWK845p-MnD5jjw-1" value="Login" style="ellipse;whiteSpace=wrap;html=1;" vertex="1" parent="WIyWlLk6GJQsqaUBKTNV-1">
          <mxGeometry x="340" y="200" width="120" height="100" as="geometry" />
        </mxCell>
        <mxCell id="xCOKYhWK845p-MnD5jjw-2" value="Admin" style="rounded=0;whiteSpace=wrap;html=1;" vertex="1" parent="WIyWlLk6GJQsqaUBKTNV-1">
          <mxGeometry x="690" y="220" width="120" height="60" as="geometry" />
        </mxCell>
        <mxCell id="xCOKYhWK845p-MnD5jjw-4" value="" style="endArrow=classic;html=1;rounded=0;entryX=0;entryY=0.5;entryDx=0;entryDy=0;" edge="1" parent="WIyWlLk6GJQsqaUBKTNV-1">
          <mxGeometry relative="1" as="geometry">
            <mxPoint x="180" y="140" as="sourcePoint" />
            <mxPoint x="340" y="240" as="targetPoint" />
            <Array as="points">
              <mxPoint x="180" y="240" />
            </Array>
          </mxGeometry>
        </mxCell>
        <mxCell id="xCOKYhWK845p-MnD5jjw-5" value="Pass Login" style="edgeLabel;resizable=0;html=1;;align=center;verticalAlign=middle;" connectable="0" vertex="1" parent="xCOKYhWK845p-MnD5jjw-4">
          <mxGeometry relative="1" as="geometry" />
        </mxCell>
        <mxCell id="xCOKYhWK845p-MnD5jjw-6" value="" style="endArrow=classic;html=1;rounded=0;entryX=0;entryY=0.5;entryDx=0;entryDy=0;exitX=1;exitY=0.5;exitDx=0;exitDy=0;" edge="1" parent="WIyWlLk6GJQsqaUBKTNV-1">
          <mxGeometry relative="1" as="geometry">
            <mxPoint x="460" y="240" as="sourcePoint" />
            <mxPoint x="690" y="240" as="targetPoint" />
          </mxGeometry>
        </mxCell>
        <mxCell id="xCOKYhWK845p-MnD5jjw-7" value="Veify Details" style="edgeLabel;resizable=0;html=1;;align=center;verticalAlign=middle;" connectable="0" vertex="1" parent="xCOKYhWK845p-MnD5jjw-6">
          <mxGeometry relative="1" as="geometry" />
        </mxCell>
        <mxCell id="xCOKYhWK845p-MnD5jjw-8" value="" style="endArrow=classic;html=1;rounded=0;entryX=0.417;entryY=1;entryDx=0;entryDy=0;entryPerimeter=0;exitX=0.017;exitY=0.682;exitDx=0;exitDy=0;exitPerimeter=0;" edge="1" parent="WIyWlLk6GJQsqaUBKTNV-1" source="xCOKYhWK845p-MnD5jjw-1">
          <mxGeometry relative="1" as="geometry">
            <mxPoint x="330.3599999999999" y="267.4" as="sourcePoint" />
            <mxPoint x="160.03999999999996" y="140" as="targetPoint" />
            <Array as="points">
              <mxPoint x="160" y="267" />
            </Array>
          </mxGeometry>
        </mxCell>
        <mxCell id="xCOKYhWK845p-MnD5jjw-9" value="Details Receive&amp;nbsp;" style="edgeLabel;resizable=0;html=1;;align=center;verticalAlign=middle;" connectable="0" vertex="1" parent="xCOKYhWK845p-MnD5jjw-8">
          <mxGeometry relative="1" as="geometry">
            <mxPoint x="23" as="offset" />
          </mxGeometry>
        </mxCell>
        <mxCell id="xCOKYhWK845p-MnD5jjw-21" value="" style="endArrow=classic;html=1;rounded=0;entryX=0.977;entryY=0.65;entryDx=0;entryDy=0;entryPerimeter=0;exitX=0;exitY=0.75;exitDx=0;exitDy=0;" edge="1" parent="WIyWlLk6GJQsqaUBKTNV-1" source="xCOKYhWK845p-MnD5jjw-2" target="xCOKYhWK845p-MnD5jjw-1">
          <mxGeometry relative="1" as="geometry">
            <mxPoint x="350" y="360" as="sourcePoint" />
            <mxPoint x="450" y="360" as="targetPoint" />
          </mxGeometry>
        </mxCell>
        <mxCell id="xCOKYhWK845p-MnD5jjw-22" value="Send Response" style="edgeLabel;resizable=0;html=1;;align=center;verticalAlign=middle;" connectable="0" vertex="1" parent="xCOKYhWK845p-MnD5jjw-21">
          <mxGeometry relative="1" as="geometry" />
        </mxCell>
        <mxCell id="xCOKYhWK845p-MnD5jjw-23" value="Manage User" style="ellipse;whiteSpace=wrap;html=1;" vertex="1" parent="WIyWlLk6GJQsqaUBKTNV-1">
          <mxGeometry x="340" y="360" width="120" height="100" as="geometry" />
        </mxCell>
        <mxCell id="xCOKYhWK845p-MnD5jjw-24" value="Number of User" style="rounded=0;whiteSpace=wrap;html=1;" vertex="1" parent="WIyWlLk6GJQsqaUBKTNV-1">
          <mxGeometry x="690" y="380" width="120" height="60" as="geometry" />
        </mxCell>
        <mxCell id="xCOKYhWK845p-MnD5jjw-25" value="" style="endArrow=classic;html=1;rounded=0;entryX=0;entryY=0.5;entryDx=0;entryDy=0;" edge="1" parent="WIyWlLk6GJQsqaUBKTNV-1">
          <mxGeometry relative="1" as="geometry">
            <mxPoint x="140" y="140" as="sourcePoint" />
            <mxPoint x="340" y="400" as="targetPoint" />
            <Array as="points">
              <mxPoint x="140" y="400" />
            </Array>
          </mxGeometry>
        </mxCell>
        <mxCell id="xCOKYhWK845p-MnD5jjw-26" value="Pass Login Info" style="edgeLabel;resizable=0;html=1;;align=center;verticalAlign=middle;" connectable="0" vertex="1" parent="xCOKYhWK845p-MnD5jjw-25">
          <mxGeometry relative="1" as="geometry">
            <mxPoint x="46" y="30" as="offset" />
          </mxGeometry>
        </mxCell>
        <mxCell id="xCOKYhWK845p-MnD5jjw-27" value="" style="endArrow=classic;html=1;rounded=0;entryX=0;entryY=0.5;entryDx=0;entryDy=0;exitX=1;exitY=0.5;exitDx=0;exitDy=0;" edge="1" parent="WIyWlLk6GJQsqaUBKTNV-1">
          <mxGeometry relative="1" as="geometry">
            <mxPoint x="460" y="400" as="sourcePoint" />
            <mxPoint x="690" y="400" as="targetPoint" />
          </mxGeometry>
        </mxCell>
        <mxCell id="xCOKYhWK845p-MnD5jjw-28" value="Store" style="edgeLabel;resizable=0;html=1;;align=center;verticalAlign=middle;" connectable="0" vertex="1" parent="xCOKYhWK845p-MnD5jjw-27">
          <mxGeometry relative="1" as="geometry" />
        </mxCell>
        <mxCell id="xCOKYhWK845p-MnD5jjw-29" value="" style="endArrow=classic;html=1;rounded=0;entryX=0.07;entryY=1.003;entryDx=0;entryDy=0;entryPerimeter=0;exitX=0.017;exitY=0.682;exitDx=0;exitDy=0;exitPerimeter=0;" edge="1" parent="WIyWlLk6GJQsqaUBKTNV-1" source="xCOKYhWK845p-MnD5jjw-23" target="xCOKYhWK845p-MnD5jjw-0">
          <mxGeometry relative="1" as="geometry">
            <mxPoint x="330.3599999999999" y="427.4" as="sourcePoint" />
            <mxPoint x="160.03999999999996" y="300" as="targetPoint" />
            <Array as="points">
              <mxPoint x="130" y="427" />
            </Array>
          </mxGeometry>
        </mxCell>
        <mxCell id="xCOKYhWK845p-MnD5jjw-30" value="Details Receive&amp;nbsp;" style="edgeLabel;resizable=0;html=1;;align=center;verticalAlign=middle;" connectable="0" vertex="1" parent="xCOKYhWK845p-MnD5jjw-29">
          <mxGeometry relative="1" as="geometry">
            <mxPoint x="60" y="37" as="offset" />
          </mxGeometry>
        </mxCell>
        <mxCell id="xCOKYhWK845p-MnD5jjw-31" value="" style="endArrow=classic;html=1;rounded=0;entryX=0.977;entryY=0.65;entryDx=0;entryDy=0;entryPerimeter=0;exitX=0;exitY=0.75;exitDx=0;exitDy=0;" edge="1" parent="WIyWlLk6GJQsqaUBKTNV-1" source="xCOKYhWK845p-MnD5jjw-24" target="xCOKYhWK845p-MnD5jjw-23">
          <mxGeometry relative="1" as="geometry">
            <mxPoint x="350" y="520" as="sourcePoint" />
            <mxPoint x="450" y="520" as="targetPoint" />
          </mxGeometry>
        </mxCell>
        <mxCell id="xCOKYhWK845p-MnD5jjw-32" value="Send Response" style="edgeLabel;resizable=0;html=1;;align=center;verticalAlign=middle;" connectable="0" vertex="1" parent="xCOKYhWK845p-MnD5jjw-31">
          <mxGeometry relative="1" as="geometry" />
        </mxCell>
        <mxCell id="xCOKYhWK845p-MnD5jjw-33" value="Manage Account" style="ellipse;whiteSpace=wrap;html=1;" vertex="1" parent="WIyWlLk6GJQsqaUBKTNV-1">
          <mxGeometry x="340" y="570" width="120" height="100" as="geometry" />
        </mxCell>
        <mxCell id="xCOKYhWK845p-MnD5jjw-34" value="Account Details" style="rounded=0;whiteSpace=wrap;html=1;" vertex="1" parent="WIyWlLk6GJQsqaUBKTNV-1">
          <mxGeometry x="690" y="590" width="120" height="60" as="geometry" />
        </mxCell>
        <mxCell id="xCOKYhWK845p-MnD5jjw-35" value="" style="endArrow=classic;html=1;rounded=0;entryX=0;entryY=0.5;entryDx=0;entryDy=0;exitX=0;exitY=1;exitDx=0;exitDy=0;" edge="1" parent="WIyWlLk6GJQsqaUBKTNV-1" source="xCOKYhWK845p-MnD5jjw-0">
          <mxGeometry relative="1" as="geometry">
            <mxPoint x="180" y="510" as="sourcePoint" />
            <mxPoint x="340" y="610" as="targetPoint" />
            <Array as="points">
              <mxPoint x="120" y="610" />
            </Array>
          </mxGeometry>
        </mxCell>
        <mxCell id="xCOKYhWK845p-MnD5jjw-36" value="Account detail" style="edgeLabel;resizable=0;html=1;;align=center;verticalAlign=middle;" connectable="0" vertex="1" parent="xCOKYhWK845p-MnD5jjw-35">
          <mxGeometry relative="1" as="geometry">
            <mxPoint x="50" y="125" as="offset" />
          </mxGeometry>
        </mxCell>
        <mxCell id="xCOKYhWK845p-MnD5jjw-37" value="" style="endArrow=classic;html=1;rounded=0;entryX=0;entryY=0.5;entryDx=0;entryDy=0;exitX=1;exitY=0.5;exitDx=0;exitDy=0;" edge="1" parent="WIyWlLk6GJQsqaUBKTNV-1">
          <mxGeometry relative="1" as="geometry">
            <mxPoint x="460" y="610" as="sourcePoint" />
            <mxPoint x="690" y="610" as="targetPoint" />
          </mxGeometry>
        </mxCell>
        <mxCell id="xCOKYhWK845p-MnD5jjw-38" value="Delete account" style="edgeLabel;resizable=0;html=1;;align=center;verticalAlign=middle;" connectable="0" vertex="1" parent="xCOKYhWK845p-MnD5jjw-37">
          <mxGeometry relative="1" as="geometry" />
        </mxCell>
        <mxCell id="xCOKYhWK845p-MnD5jjw-39" value="" style="endArrow=classic;html=1;rounded=0;exitX=0.017;exitY=0.682;exitDx=0;exitDy=0;exitPerimeter=0;entryX=0;entryY=0.75;entryDx=0;entryDy=0;" edge="1" parent="WIyWlLk6GJQsqaUBKTNV-1" source="xCOKYhWK845p-MnD5jjw-33" target="xCOKYhWK845p-MnD5jjw-0">
          <mxGeometry relative="1" as="geometry">
            <mxPoint x="330.3599999999999" y="637.4" as="sourcePoint" />
            <mxPoint x="90" y="120" as="targetPoint" />
            <Array as="points">
              <mxPoint x="100" y="640" />
              <mxPoint x="100" y="125" />
            </Array>
          </mxGeometry>
        </mxCell>
        <mxCell id="xCOKYhWK845p-MnD5jjw-40" value="Details Receive&amp;nbsp;" style="edgeLabel;resizable=0;html=1;;align=center;verticalAlign=middle;" connectable="0" vertex="1" parent="xCOKYhWK845p-MnD5jjw-39">
          <mxGeometry relative="1" as="geometry">
            <mxPoint x="80" y="148" as="offset" />
          </mxGeometry>
        </mxCell>
        <mxCell id="xCOKYhWK845p-MnD5jjw-41" value="" style="endArrow=classic;html=1;rounded=0;entryX=0.977;entryY=0.65;entryDx=0;entryDy=0;entryPerimeter=0;exitX=0;exitY=0.75;exitDx=0;exitDy=0;" edge="1" parent="WIyWlLk6GJQsqaUBKTNV-1" source="xCOKYhWK845p-MnD5jjw-34" target="xCOKYhWK845p-MnD5jjw-33">
          <mxGeometry relative="1" as="geometry">
            <mxPoint x="350" y="730" as="sourcePoint" />
            <mxPoint x="450" y="730" as="targetPoint" />
          </mxGeometry>
        </mxCell>
        <mxCell id="xCOKYhWK845p-MnD5jjw-42" value="Send Response" style="edgeLabel;resizable=0;html=1;;align=center;verticalAlign=middle;" connectable="0" vertex="1" parent="xCOKYhWK845p-MnD5jjw-41">
          <mxGeometry relative="1" as="geometry" />
        </mxCell>
        <mxCell id="xCOKYhWK845p-MnD5jjw-43" value="Manage Post" style="ellipse;whiteSpace=wrap;html=1;" vertex="1" parent="WIyWlLk6GJQsqaUBKTNV-1">
          <mxGeometry x="340" y="740" width="120" height="100" as="geometry" />
        </mxCell>
        <mxCell id="xCOKYhWK845p-MnD5jjw-44" value="Post" style="rounded=0;whiteSpace=wrap;html=1;" vertex="1" parent="WIyWlLk6GJQsqaUBKTNV-1">
          <mxGeometry x="690" y="760" width="120" height="60" as="geometry" />
        </mxCell>
        <mxCell id="xCOKYhWK845p-MnD5jjw-45" value="" style="endArrow=classic;html=1;rounded=0;entryX=0;entryY=0.5;entryDx=0;entryDy=0;exitX=0;exitY=0.5;exitDx=0;exitDy=0;" edge="1" parent="WIyWlLk6GJQsqaUBKTNV-1" source="xCOKYhWK845p-MnD5jjw-0">
          <mxGeometry relative="1" as="geometry">
            <mxPoint x="180" y="680" as="sourcePoint" />
            <mxPoint x="340" y="780" as="targetPoint" />
            <Array as="points">
              <mxPoint x="80" y="110" />
              <mxPoint x="80" y="780" />
            </Array>
          </mxGeometry>
        </mxCell>
        <mxCell id="xCOKYhWK845p-MnD5jjw-46" value="Post Details" style="edgeLabel;resizable=0;html=1;;align=center;verticalAlign=middle;" connectable="0" vertex="1" parent="xCOKYhWK845p-MnD5jjw-45">
          <mxGeometry relative="1" as="geometry">
            <mxPoint x="80" y="224" as="offset" />
          </mxGeometry>
        </mxCell>
        <mxCell id="xCOKYhWK845p-MnD5jjw-47" value="" style="endArrow=classic;html=1;rounded=0;entryX=0;entryY=0.5;entryDx=0;entryDy=0;exitX=1;exitY=0.5;exitDx=0;exitDy=0;" edge="1" parent="WIyWlLk6GJQsqaUBKTNV-1">
          <mxGeometry relative="1" as="geometry">
            <mxPoint x="460" y="780" as="sourcePoint" />
            <mxPoint x="690" y="780" as="targetPoint" />
          </mxGeometry>
        </mxCell>
        <mxCell id="xCOKYhWK845p-MnD5jjw-48" value="Delee Post" style="edgeLabel;resizable=0;html=1;;align=center;verticalAlign=middle;" connectable="0" vertex="1" parent="xCOKYhWK845p-MnD5jjw-47">
          <mxGeometry relative="1" as="geometry" />
        </mxCell>
        <mxCell id="xCOKYhWK845p-MnD5jjw-49" value="" style="endArrow=classic;html=1;rounded=0;entryX=0;entryY=0.333;entryDx=0;entryDy=0;exitX=0.017;exitY=0.682;exitDx=0;exitDy=0;exitPerimeter=0;entryPerimeter=0;" edge="1" parent="WIyWlLk6GJQsqaUBKTNV-1" source="xCOKYhWK845p-MnD5jjw-43" target="xCOKYhWK845p-MnD5jjw-0">
          <mxGeometry relative="1" as="geometry">
            <mxPoint x="330.3599999999999" y="807.4" as="sourcePoint" />
            <mxPoint x="160.03999999999996" y="680" as="targetPoint" />
            <Array as="points">
              <mxPoint x="60" y="807" />
              <mxPoint x="60" y="100" />
            </Array>
          </mxGeometry>
        </mxCell>
        <mxCell id="xCOKYhWK845p-MnD5jjw-50" value="Details Receive&amp;nbsp;" style="edgeLabel;resizable=0;html=1;;align=center;verticalAlign=middle;" connectable="0" vertex="1" parent="xCOKYhWK845p-MnD5jjw-49">
          <mxGeometry relative="1" as="geometry">
            <mxPoint x="100" y="242" as="offset" />
          </mxGeometry>
        </mxCell>
        <mxCell id="xCOKYhWK845p-MnD5jjw-51" value="" style="endArrow=classic;html=1;rounded=0;entryX=0.977;entryY=0.65;entryDx=0;entryDy=0;entryPerimeter=0;exitX=0;exitY=0.75;exitDx=0;exitDy=0;" edge="1" parent="WIyWlLk6GJQsqaUBKTNV-1" source="xCOKYhWK845p-MnD5jjw-44" target="xCOKYhWK845p-MnD5jjw-43">
          <mxGeometry relative="1" as="geometry">
            <mxPoint x="350" y="900" as="sourcePoint" />
            <mxPoint x="450" y="900" as="targetPoint" />
          </mxGeometry>
        </mxCell>
        <mxCell id="xCOKYhWK845p-MnD5jjw-52" value="Send Response" style="edgeLabel;resizable=0;html=1;;align=center;verticalAlign=middle;" connectable="0" vertex="1" parent="xCOKYhWK845p-MnD5jjw-51">
          <mxGeometry relative="1" as="geometry" />
        </mxCell>
      </root>
    </mxGraphModel>
  </diagram>
</mxfile>
